<?xml version="1.0" encoding="UTF-8"?><svg id="a" xmlns="http://www.w3.org/2000/svg" viewBox="0 0 500 240.18"><polygon points="368.35 162.67 368.35 137.33 390.29 124.66 412.23 137.33 412.23 162.67 390.29 175.34 368.35 162.67" style="fill:none; opacity:.5; stroke:#fff; stroke-linecap:round; stroke-linejoin:round; stroke-width:.33px;"/><polygon points="368.35 213.34 368.35 188 390.29 175.34 412.23 188 412.23 213.34 390.29 226.01 368.35 213.34" style="fill:none; opacity:.5; stroke:#fff; stroke-linecap:round; stroke-linejoin:round; stroke-width:.33px;"/><line x1="346.41" y1="150" x2="324.46" y2="162.67" style="fill:none; opacity:.5; stroke:#fff; stroke-linecap:round; stroke-linejoin:round; stroke-width:.33px;"/><polyline points="302.52 150 302.52 124.66 324.46 111.99 346.41 124.66" style="fill:none; opacity:.5; stroke:#fff; stroke-linecap:round; stroke-linejoin:round; stroke-width:.33px;"/><polygon points="324.46 137.33 324.46 111.99 346.41 99.33 368.35 111.99 368.35 137.33 346.41 150 324.46 137.33" style="fill:none; opacity:.5; stroke:#fff; stroke-linecap:round; stroke-linejoin:round; stroke-width:.33px;"/><polygon points="500 111.99 500 86.66 521.94 99.33 543.88 86.66 543.88 111.99 521.94 124.66 500 111.99" style="fill:none; opacity:.5; stroke:#fff; stroke-linecap:round; stroke-linejoin:round; stroke-width:.33px;"/><polygon points="302.52 226.01 302.52 200.67 324.46 213.34 346.41 200.67 346.41 226.01 324.46 238.68 302.52 226.01" style="fill:none; opacity:.5; stroke:#fff; stroke-linecap:round; stroke-linejoin:round; stroke-width:.33px;"/><polyline points="390.29 73.99 390.29 99.33 368.35 111.99 346.41 99.33 346.41 73.99" style="fill:none; opacity:.5; stroke:#fff; stroke-linecap:round; stroke-linejoin:round; stroke-width:.33px;"/><polyline points="346.41 124.66 368.35 137.33 390.29 124.66 390.29 150 368.35 162.67 346.41 150" style="fill:none; opacity:.5; stroke:#fff; stroke-linecap:round; stroke-linejoin:round; stroke-width:.33px;"/><polygon points="478.06 200.67 478.06 175.34 500 188 521.94 175.34 521.94 200.67 500 213.34 478.06 200.67" style="fill:none; opacity:.5; stroke:#fff; stroke-linecap:round; stroke-linejoin:round; stroke-width:.33px;"/><polygon points="521.94 226.01 500 213.34 521.94 200.67 521.94 175.34 543.88 188 543.88 213.34 521.94 226.01" style="fill:none; opacity:.5; stroke:#fff; stroke-linecap:round; stroke-linejoin:round; stroke-width:.33px;"/><polygon points="434.17 175.34 456.12 188 434.17 200.67 434.17 226.01 412.23 213.34 412.23 188 434.17 175.34" style="fill:none; opacity:.5; stroke:#fff; stroke-linecap:round; stroke-linejoin:round; stroke-width:.33px;"/><polygon points="390.29 124.66 390.29 99.33 412.23 86.66 434.17 99.33 434.17 124.66 412.23 137.33 390.29 124.66" style="fill:none; opacity:.5; stroke:#fff; stroke-linecap:round; stroke-linejoin:round; stroke-width:.33px;"/><polygon points="434.17 124.66 434.17 99.33 456.12 86.66 478.06 99.33 478.06 124.66 456.12 137.33 434.17 124.66" style="fill:none; opacity:.5; stroke:#fff; stroke-linecap:round; stroke-linejoin:round; stroke-width:.33px;"/><polygon points="412.23 111.99 412.23 86.66 434.17 73.99 456.12 86.66 456.12 111.99 434.17 124.66 412.23 111.99" style="fill:none; opacity:.5; stroke:#fff; stroke-linecap:round; stroke-linejoin:round; stroke-width:.33px;"/><polygon points="500 162.67 500 137.33 521.94 124.66 543.88 137.33 543.88 162.67 521.94 175.34 500 162.67" style="fill:none; opacity:.5; stroke:#fff; stroke-linecap:round; stroke-linejoin:round; stroke-width:.33px;"/><polygon points="390.29 73.99 390.29 48.65 412.23 35.98 434.17 48.65 434.17 73.99 412.23 86.66 390.29 73.99" style="fill:none; opacity:.5; stroke:#fff; stroke-linecap:round; stroke-linejoin:round; stroke-width:.33px;"/><polygon points="390.29 251.35 390.29 226.01 412.23 213.34 434.17 226.01 434.17 251.35 412.23 264.01 390.29 251.35" style="fill:none; opacity:.5; stroke:#fff; stroke-linecap:round; stroke-linejoin:round; stroke-width:.33px;"/><line x1="456.12" y1="137.33" x2="500" y2="162.67" style="fill:none; opacity:.5; stroke:#fff; stroke-linecap:round; stroke-linejoin:round; stroke-width:.33px;"/><line x1="521.94" y1="124.66" x2="478.06" y2="99.33" style="fill:none; opacity:.5; stroke:#fff; stroke-linecap:round; stroke-linejoin:round; stroke-width:.33px;"/><line x1="434.17" y1="73.99" x2="478.06" y2="48.65" style="fill:none; opacity:.5; stroke:#fff; stroke-linecap:round; stroke-linejoin:round; stroke-width:.33px;"/><line x1="390.29" y1="251.35" x2="390.29" y2="226.01" style="fill:none; opacity:.5; stroke:#fff; stroke-linecap:round; stroke-linejoin:round; stroke-width:.33px;"/><line x1="456.12" y1="238.68" x2="412.23" y2="213.34" style="fill:none; opacity:.5; stroke:#fff; stroke-linecap:round; stroke-linejoin:round; stroke-width:.33px;"/><line x1="456.12" y1="188" x2="478.06" y2="175.34" style="fill:none; opacity:.5; stroke:#fff; stroke-linecap:round; stroke-linejoin:round; stroke-width:.33px;"/><line x1="412.23" y1="162.67" x2="434.17" y2="150" style="fill:none; opacity:.5; stroke:#fff; stroke-linecap:round; stroke-linejoin:round; stroke-width:.33px;"/><polyline points="280.58 162.67 258.64 175.34 236.69 162.67 236.69 137.33 258.64 124.66 280.58 137.33" style="fill:none; opacity:.5; stroke:#fff; stroke-linecap:round; stroke-linejoin:round; stroke-width:.33px;"/><polygon points="280.58 86.66 280.58 111.99 258.64 124.66 236.69 111.99 236.69 86.66 258.64 73.99 280.58 86.66" style="fill:none; opacity:.5; stroke:#fff; stroke-linecap:round; stroke-linejoin:round; stroke-width:.33px;"/><polygon points="346.41 150 346.41 175.34 324.46 188 302.52 175.34 302.52 150 324.46 137.33 346.41 150" style="fill:none; opacity:.5; stroke:#fff; stroke-linecap:round; stroke-linejoin:round; stroke-width:.33px;"/><polyline points="324.46 162.67 324.46 188 302.52 200.67 280.58 188 280.58 162.67 302.52 150" style="fill:none; opacity:.5; stroke:#fff; stroke-linecap:round; stroke-linejoin:round; stroke-width:.33px;"/><polygon points="148.93 188 148.93 213.34 126.98 200.67 105.04 213.34 105.04 188 126.98 175.34 148.93 188" style="fill:none; opacity:.5; stroke:#fff; stroke-linecap:round; stroke-linejoin:round; stroke-width:.33px;"/><polygon points="346.41 73.99 346.41 99.33 324.46 86.66 302.52 99.33 302.52 73.99 324.46 61.32 346.41 73.99" style="fill:none; opacity:.5; stroke:#fff; stroke-linecap:round; stroke-linejoin:round; stroke-width:.33px;"/><polyline points="302.52 73.99 302.52 99.33 302.52 124.66 258.64 99.33 258.64 73.99 280.58 86.66" style="fill:none; opacity:.5; stroke:#fff; stroke-linecap:round; stroke-linejoin:round; stroke-width:.33px;"/><polyline points="258.64 200.67 280.58 188 302.52 200.67 302.52 226.01 280.58 213.34" style="fill:none; opacity:.5; stroke:#fff; stroke-linecap:round; stroke-linejoin:round; stroke-width:.33px;"/><polygon points="302.52 150 302.52 175.34 280.58 162.67 258.64 175.34 258.64 150 280.58 137.33 302.52 150" style="fill:none; opacity:.5; stroke:#fff; stroke-linecap:round; stroke-linejoin:round; stroke-width:.33px;"/><polygon points="170.87 99.33 170.87 124.66 148.93 111.99 126.98 124.66 126.98 99.33 148.93 86.66 170.87 99.33" style="fill:none; opacity:.5; stroke:#fff; stroke-linecap:round; stroke-linejoin:round; stroke-width:.33px;"/><polygon points="126.98 73.99 148.93 86.66 126.98 99.33 126.98 124.66 105.04 111.99 105.04 86.66 126.98 73.99" style="fill:none; opacity:.5; stroke:#fff; stroke-linecap:round; stroke-linejoin:round; stroke-width:.33px;"/><polygon points="214.75 124.66 192.81 111.99 214.75 99.33 214.75 73.99 236.69 86.66 236.69 111.99 214.75 124.66" style="fill:none; opacity:.5; stroke:#fff; stroke-linecap:round; stroke-linejoin:round; stroke-width:.33px;"/><polyline points="148.93 61.32 148.93 86.66 126.98 99.33 105.04 86.66 126.98 73.99" style="fill:none; opacity:.5; stroke:#fff; stroke-linecap:round; stroke-linejoin:round; stroke-width:.33px;"/><polygon points="258.64 175.34 258.64 200.67 236.69 213.34 214.75 200.67 214.75 175.34 236.69 162.67 258.64 175.34" style="fill:none; opacity:.5; stroke:#fff; stroke-linecap:round; stroke-linejoin:round; stroke-width:.33px;"/><polygon points="214.75 175.34 214.75 200.67 192.81 213.34 170.87 200.67 170.87 175.34 192.81 162.67 214.75 175.34" style="fill:none; opacity:.5; stroke:#fff; stroke-linecap:round; stroke-linejoin:round; stroke-width:.33px;"/><polygon points="236.69 188 236.69 213.34 214.75 226.01 192.81 213.34 192.81 188 214.75 175.34 236.69 188" style="fill:none; opacity:.5; stroke:#fff; stroke-linecap:round; stroke-linejoin:round; stroke-width:.33px;"/><polygon points="148.93 137.33 148.93 162.67 126.98 175.34 105.04 162.67 105.04 137.33 126.98 124.66 148.93 137.33" style="fill:none; opacity:.5; stroke:#fff; stroke-linecap:round; stroke-linejoin:round; stroke-width:.33px;"/><polygon points="83.1 150 83.1 175.34 61.16 188 39.22 175.34 39.22 150 61.16 137.33 83.1 150" style="fill:none; opacity:.5; stroke:#fff; stroke-linecap:round; stroke-linejoin:round; stroke-width:.33px;"/><polyline points="83.1 99.33 83.1 124.66 61.16 137.33 39.22 124.66" style="fill:none; opacity:.5; stroke:#fff; stroke-linecap:round; stroke-linejoin:round; stroke-width:.33px;"/><polyline points="61.16 137.33 61.16 162.67 39.22 175.34 17.27 162.67" style="fill:none; opacity:.5; stroke:#fff; stroke-linecap:round; stroke-linejoin:round; stroke-width:.33px;"/><polygon points="126.98 124.66 126.98 150 105.04 162.67 83.1 150 83.1 124.66 105.04 111.99 126.98 124.66" style="fill:none; opacity:.5; stroke:#fff; stroke-linecap:round; stroke-linejoin:round; stroke-width:.33px;"/><line x1="192.81" y1="162.67" x2="148.93" y2="137.33" style="fill:none; opacity:.5; stroke:#fff; stroke-linecap:round; stroke-linejoin:round; stroke-width:.33px;"/><line x1="126.98" y1="175.34" x2="170.87" y2="200.67" style="fill:none; opacity:.5; stroke:#fff; stroke-linecap:round; stroke-linejoin:round; stroke-width:.33px;"/><line x1="105.04" y1="162.67" x2="39.22" y2="200.67" style="fill:none; opacity:.5; stroke:#fff; stroke-linecap:round; stroke-linejoin:round; stroke-width:.33px;"/><line x1="214.75" y1="226.01" x2="170.87" y2="251.35" style="fill:none; opacity:.5; stroke:#fff; stroke-linecap:round; stroke-linejoin:round; stroke-width:.33px;"/><line x1="258.64" y1="48.65" x2="258.64" y2="73.99" style="fill:none; opacity:.5; stroke:#fff; stroke-linecap:round; stroke-linejoin:round; stroke-width:.33px;"/><line x1="192.81" y1="61.32" x2="236.69" y2="86.66" style="fill:none; opacity:.5; stroke:#fff; stroke-linecap:round; stroke-linejoin:round; stroke-width:.33px;"/><line x1="105.04" y1="213.34" x2="83.1" y2="226.01" style="fill:none; opacity:.5; stroke:#fff; stroke-linecap:round; stroke-linejoin:round; stroke-width:.33px;"/><line x1="192.81" y1="111.99" x2="170.87" y2="124.66" style="fill:none; opacity:.5; stroke:#fff; stroke-linecap:round; stroke-linejoin:round; stroke-width:.33px;"/><line x1="236.69" y1="137.33" x2="214.75" y2="150" style="fill:none; opacity:.5; stroke:#fff; stroke-linecap:round; stroke-linejoin:round; stroke-width:.33px;"/><line x1="521.94" y1="150" x2="500" y2="137.33" style="fill:none; stroke:#fff; stroke-linecap:round; stroke-linejoin:round; stroke-width:.33px;"/><polyline points="478.06 150 478.06 175.34 500 188 521.94 175.34" style="fill:none; stroke:#fff; stroke-linecap:round; stroke-linejoin:round; stroke-width:.33px;"/><polygon points="500 162.67 500 188 521.94 200.67 543.88 188 543.88 162.67 521.94 150 500 162.67" style="fill:none; stroke:#fff; stroke-linecap:round; stroke-linejoin:round; stroke-width:.33px;"/><polygon points="478.06 73.99 478.06 99.33 500 86.66 521.94 99.33 521.94 73.99 500 61.32 478.06 73.99" style="fill:none; stroke:#fff; stroke-linecap:round; stroke-linejoin:round; stroke-width:.33px;"/><polyline points="456.12 137.33 434.17 124.66 412.23 137.33 412.23 162.67 434.17 175.34 456.12 162.67" style="fill:none; stroke:#fff; stroke-linecap:round; stroke-linejoin:round; stroke-width:.33px;"/><polygon points="456.12 213.34 456.12 188 434.17 175.34 412.23 188 412.23 213.34 434.17 226.01 456.12 213.34" style="fill:none; stroke:#fff; stroke-linecap:round; stroke-linejoin:round; stroke-width:.33px;"/><polygon points="521.94 150 521.94 124.66 500 111.99 478.06 124.66 478.06 150 500 162.67 521.94 150" style="fill:none; stroke:#fff; stroke-linecap:round; stroke-linejoin:round; stroke-width:.33px;"/><polyline points="500 137.33 500 111.99 478.06 99.33 456.12 111.99 456.12 137.33 478.06 150" style="fill:none; stroke:#fff; stroke-linecap:round; stroke-linejoin:round; stroke-width:.33px;"/><polygon points="324.46 111.99 324.46 86.66 302.52 99.33 280.58 86.66 280.58 111.99 302.52 124.66 324.46 111.99" style="fill:none; stroke:#fff; stroke-linecap:round; stroke-linejoin:round; stroke-width:.33px;"/><polygon points="521.94 226.01 521.94 200.67 500 213.34 478.06 200.67 478.06 226.01 500 238.68 521.94 226.01" style="fill:none; stroke:#fff; stroke-linecap:round; stroke-linejoin:round; stroke-width:.33px;"/><polyline points="478.06 226.01 478.06 200.67 478.06 175.34 434.17 200.67 434.17 226.01 456.12 213.34" style="fill:none; stroke:#fff; stroke-linecap:round; stroke-linejoin:round; stroke-width:.33px;"/><polyline points="434.17 99.33 456.12 111.99 478.06 99.33 478.06 73.99 456.12 86.66" style="fill:none; stroke:#fff; stroke-linecap:round; stroke-linejoin:round; stroke-width:.33px;"/><polygon points="478.06 150 478.06 124.66 456.12 137.33 434.17 124.66 434.17 150 456.12 162.67 478.06 150" style="fill:none; stroke:#fff; stroke-linecap:round; stroke-linejoin:round; stroke-width:.33px;"/><polygon points="346.41 200.67 346.41 175.34 324.46 188 302.52 175.34 302.52 200.67 324.46 213.34 346.41 200.67" style="fill:none; stroke:#fff; stroke-linecap:round; stroke-linejoin:round; stroke-width:.33px;"/><polygon points="302.52 226.01 324.46 213.34 302.52 200.67 302.52 175.34 280.58 188 280.58 213.34 302.52 226.01" style="fill:none; stroke:#fff; stroke-linecap:round; stroke-linejoin:round; stroke-width:.33px;"/><polygon points="390.29 175.34 368.35 188 390.29 200.67 390.29 226.01 412.23 213.34 412.23 188 390.29 175.34" style="fill:none; stroke:#fff; stroke-linecap:round; stroke-linejoin:round; stroke-width:.33px;"/><polyline points="324.46 238.68 324.46 213.34 302.52 200.67 280.58 213.34 302.52 226.01" style="fill:none; stroke:#fff; stroke-linecap:round; stroke-linejoin:round; stroke-width:.33px;"/><polygon points="434.17 124.66 434.17 99.33 412.23 86.66 390.29 99.33 390.29 124.66 412.23 137.33 434.17 124.66" style="fill:none; stroke:#fff; stroke-linecap:round; stroke-linejoin:round; stroke-width:.33px;"/><polygon points="390.29 124.66 390.29 99.33 368.35 86.66 346.41 99.33 346.41 124.66 368.35 137.33 390.29 124.66" style="fill:none; stroke:#fff; stroke-linecap:round; stroke-linejoin:round; stroke-width:.33px;"/><polygon points="412.23 111.99 412.23 86.66 390.29 73.99 368.35 86.66 368.35 111.99 390.29 124.66 412.23 111.99" style="fill:none; stroke:#fff; stroke-linecap:round; stroke-linejoin:round; stroke-width:.33px;"/><polygon points="324.46 162.67 324.46 137.33 302.52 124.66 280.58 137.33 280.58 162.67 302.52 175.34 324.46 162.67" style="fill:none; stroke:#fff; stroke-linecap:round; stroke-linejoin:round; stroke-width:.33px;"/><polygon points="236.69 162.67 236.69 137.33 214.75 124.66 192.81 137.33 192.81 162.67 214.75 175.34 236.69 162.67" style="fill:none; stroke:#fff; stroke-linecap:round; stroke-linejoin:round; stroke-width:.33px;"/><polyline points="258.64 200.67 258.64 175.34 236.69 162.67 214.75 175.34" style="fill:none; stroke:#fff; stroke-linecap:round; stroke-linejoin:round; stroke-width:.33px;"/><polygon points="302.52 175.34 302.52 150 280.58 137.33 258.64 150 258.64 175.34 280.58 188 302.52 175.34" style="fill:none; stroke:#fff; stroke-linecap:round; stroke-linejoin:round; stroke-width:.33px;"/><polygon points="214.75 175.34 214.75 150 192.81 137.33 170.87 150 170.87 175.34 192.81 188 214.75 175.34" style="fill:none; stroke:#fff; stroke-linecap:round; stroke-linejoin:round; stroke-width:.33px;"/><line x1="148.93" y1="162.67" x2="170.87" y2="150" style="fill:none; stroke:#fff; stroke-linecap:round; stroke-linejoin:round; stroke-width:.33px;"/><line x1="368.35" y1="137.33" x2="324.46" y2="162.67" style="fill:none; stroke:#fff; stroke-linecap:round; stroke-linejoin:round; stroke-width:.33px;"/><line x1="302.52" y1="124.66" x2="346.41" y2="99.33" style="fill:none; stroke:#fff; stroke-linecap:round; stroke-linejoin:round; stroke-width:.33px;"/><line x1="280.58" y1="137.33" x2="214.75" y2="99.33" style="fill:none; stroke:#fff; stroke-linecap:round; stroke-linejoin:round; stroke-width:.33px;"/><line x1="214.75" y1="124.66" x2="214.75" y2="73.99" style="fill:none; stroke:#fff; stroke-linecap:round; stroke-linejoin:round; stroke-width:.33px;"/><line x1="390.29" y1="73.99" x2="346.41" y2="48.65" style="fill:none; stroke:#fff; stroke-linecap:round; stroke-linejoin:round; stroke-width:.33px;"/><line x1="434.17" y1="251.35" x2="434.17" y2="226.01" style="fill:none; stroke:#fff; stroke-linecap:round; stroke-linejoin:round; stroke-width:.33px;"/><line x1="368.35" y1="238.68" x2="412.23" y2="213.34" style="fill:none; stroke:#fff; stroke-linecap:round; stroke-linejoin:round; stroke-width:.33px;"/><line x1="280.58" y1="86.66" x2="258.64" y2="73.99" style="fill:none; stroke:#fff; stroke-linecap:round; stroke-linejoin:round; stroke-width:.33px;"/><line x1="368.35" y1="188" x2="346.41" y2="175.34" style="fill:none; stroke:#fff; stroke-linecap:round; stroke-linejoin:round; stroke-width:.33px;"/><line x1="412.23" y1="162.67" x2="390.29" y2="150" style="fill:none; stroke:#fff; stroke-linecap:round; stroke-linejoin:round; stroke-width:.33px;"/><line x1="368.35" y1="188" x2="258.64" y2="251.35" style="fill:none; stroke:#fff; stroke-linecap:round; stroke-linejoin:round; stroke-width:.33px;"/><line x1="148.93" y1="213.34" x2="192.81" y2="188" style="fill:none; stroke:#fff; stroke-linecap:round; stroke-linejoin:round; stroke-width:.33px;"/><path d="M214.75,100.52c-.66,0-1.2-.54-1.2-1.2s.54-1.2,1.2-1.2,1.19.54,1.19,1.2-.54,1.2-1.19,1.2Z" style="fill:#fff;"/><path d="M324.46,87.85c-.66,0-1.19-.54-1.19-1.2s.54-1.2,1.19-1.2,1.2.54,1.2,1.2-.54,1.2-1.2,1.2Z" style="fill:#fff;"/><path d="M390.29,100.83c-.83,0-1.5-.67-1.5-1.5s.67-1.5,1.5-1.5,1.5.67,1.5,1.5-.67,1.5-1.5,1.5Z" style="fill:#fff;"/><path d="M214.75,75.18c-.66,0-1.19-.54-1.19-1.19s.54-1.2,1.19-1.2,1.2.54,1.2,1.2-.54,1.19-1.2,1.19Z" style="fill:#fff;"/><path d="M324.46,138.83c-.83,0-1.5-.67-1.5-1.5s.67-1.5,1.5-1.5,1.5.67,1.5,1.5-.67,1.5-1.5,1.5Z" style="fill:#fff;"/><path d="M412.23,87.85c-.66,0-1.19-.54-1.19-1.2s.54-1.2,1.19-1.2,1.2.54,1.2,1.2-.54,1.2-1.2,1.2Z" style="fill:#fff;"/><path d="M368.35,239.87c-.66,0-1.19-.54-1.19-1.19s.54-1.2,1.19-1.2,1.19.54,1.19,1.2-.54,1.19-1.19,1.19Z" style="fill:#fff;"/><path d="M456.11,215.34c-1.1,0-2-.9-2-2s.9-2,2-2,2,.9,2,2-.9,2-2,2Z" style="fill:#fff;"/><path d="M478.06,126.16c-.83,0-1.5-.67-1.5-1.5s.67-1.5,1.5-1.5,1.5.67,1.5,1.5-.67,1.5-1.5,1.5Z" style="fill:#fff;"/><path d="M258.64,201.87c-.66,0-1.2-.54-1.2-1.19s.54-1.2,1.2-1.2,1.2.54,1.2,1.2-.54,1.19-1.2,1.19Z" style="fill:#fff;"/><path d="M258.64,75.99c-1.1,0-2-.9-2-2s.9-2,2-2,2,.9,2,2-.9,2-2,2Z" style="fill:#fff;"/><path d="M236.69,164.67c-1.1,0-2-.9-2-2s.9-2,2-2,2,.9,2,2-.9,2-2,2Z" style="fill:#fff;"/><path d="M324.46,240.18c-.83,0-1.5-.67-1.5-1.5s.67-1.5,1.5-1.5,1.5.67,1.5,1.5-.67,1.5-1.5,1.5Z" style="fill:#fff;"/><path d="M434.17,176.53c-.66,0-1.2-.54-1.2-1.2s.54-1.2,1.2-1.2,1.2.54,1.2,1.2-.54,1.2-1.2,1.2Z" style="fill:#fff;"/><path d="M214.75,151.5c-.83,0-1.5-.67-1.5-1.5s.67-1.5,1.5-1.5,1.5.67,1.5,1.5-.67,1.5-1.5,1.5Z" style="fill:#fff;"/><path d="M302.52,176.84c-.83,0-1.5-.67-1.5-1.5s.67-1.5,1.5-1.5,1.5.67,1.5,1.5-.67,1.5-1.5,1.5Z" style="fill:#fff;"/><path d="M368.35,139.33c-1.1,0-2-.9-2-2s.9-2,2-2,2,.9,2,2-.9,2-2,2Z" style="fill:#fff;"/><path d="M456.11,88.66c-1.1,0-2-.9-2-2s.9-2,2-2,2,.9,2,2-.9,2-2,2Z" style="fill:#fff;"/><path d="M148.93,214.84c-.83,0-1.5-.67-1.5-1.5s.67-1.5,1.5-1.5,1.5.67,1.5,1.5-.67,1.5-1.5,1.5Z" style="fill:#fff;"/><path d="M280.58,215.34c-1.1,0-2-.9-2-2s.9-2,2-2,2,.9,2,2-.9,2-2,2Z" style="fill:#fff;"/><path d="M390.29,202.17c-.83,0-1.5-.67-1.5-1.5s.67-1.5,1.5-1.5,1.5.67,1.5,1.5-.67,1.5-1.5,1.5Z" style="fill:#fff;"/><path d="M478.06,176.53c-.66,0-1.2-.54-1.2-1.2s.54-1.19,1.2-1.19,1.19.54,1.19,1.19-.54,1.2-1.19,1.2Z" style="fill:#fff;"/><path d="M170.87,152c-1.1,0-2-.9-2-2s.9-2,2-2,2,.9,2,2-.9,2-2,2Z" style="fill:#fff;"/><path d="M148.93,163.86c-.66,0-1.2-.53-1.2-1.19s.54-1.2,1.2-1.2,1.19.54,1.19,1.2-.54,1.19-1.19,1.19Z" style="fill:#fff;"/><path d="M280.58,138.52c-.66,0-1.2-.54-1.2-1.19s.54-1.2,1.2-1.2,1.19.54,1.19,1.2-.54,1.19-1.19,1.19Z" style="fill:#fff;"/><path d="M346.4,100.52c-.66,0-1.2-.54-1.2-1.19s.54-1.2,1.2-1.2,1.2.54,1.2,1.2-.54,1.19-1.2,1.19Z" style="fill:#fff;"/><path d="M500,163.86c-.66,0-1.19-.54-1.19-1.19s.54-1.2,1.19-1.2,1.2.54,1.2,1.2-.54,1.19-1.2,1.19Z" style="fill:#fff;"/><path d="M346.4,201.87c-.66,0-1.2-.54-1.2-1.2s.54-1.2,1.2-1.2,1.2.54,1.2,1.2-.54,1.2-1.2,1.2Z" style="fill:#fff;"/><path d="M390.29,151.19c-.66,0-1.2-.54-1.2-1.19s.54-1.19,1.2-1.19,1.19.54,1.19,1.19-.54,1.19-1.19,1.19Z" style="fill:#fff;"/><path d="M500,87.85c-.66,0-1.19-.54-1.19-1.2s.54-1.19,1.19-1.19,1.2.54,1.2,1.19-.54,1.2-1.2,1.2Z" style="fill:#fff;"/><path d="M500,239.87c-.66,0-1.19-.54-1.19-1.19s.54-1.2,1.19-1.2,1.2.54,1.2,1.2-.54,1.19-1.2,1.19Z" style="fill:#fff;"/><path d="M192.81,189.2c-.66,0-1.2-.54-1.2-1.19s.54-1.2,1.2-1.2,1.19.54,1.19,1.2-.54,1.19-1.19,1.19Z" style="fill:#fff;"/><path d="M434.17,125.86c-.66,0-1.2-.54-1.2-1.19s.54-1.2,1.2-1.2,1.2.54,1.2,1.2-.54,1.19-1.2,1.19Z" style="fill:#fff;"/><path d="M346.4,50.15c-.83,0-1.5-.67-1.5-1.5s.67-1.5,1.5-1.5,1.5.67,1.5,1.5-.67,1.5-1.5,1.5Z" style="fill:#fff;"/></svg>