<?xml version="1.0" encoding="UTF-8"?><svg id="a" xmlns="http://www.w3.org/2000/svg" viewBox="0 0 128 17"><path d="M4.48,2.32v14.28h-2.17V2.32H.23V.35h6.34v1.97h-2.08Z" style="fill:#1c75bc;"/><path d="M12,16.6v-7.38h-2.67v7.38h-2.17V.35h2.17v6.9h2.67V.35h2.17v16.25h-2.17Z" style="fill:#1c75bc;"/><path d="M15.55,16.6V.35h5.39v1.97h-3.21v4.94h2.85v1.97h-2.85v5.41h3.21v1.97h-5.39Z" style="fill:#1c75bc;"/><path d="M29.86,8.25c1.19.33,1.79.95,1.79,1.86v4.07c0,1.62-.82,2.42-2.47,2.42h-4.37V.35h3.71c1.93,0,2.9.98,2.9,2.94v3.12c0,.94-.52,1.51-1.56,1.72v.11ZM26.98,7.21h1.02c.83,0,1.25-.39,1.25-1.18v-2.54c0-.78-.32-1.18-.97-1.18h-1.29v4.89ZM26.98,14.63h1.63c.57,0,.86-.23.86-.7v-3.6c0-.77-.43-1.15-1.29-1.15h-1.2v5.46Z" style="fill:#00193d;"/><path d="M39.86.35v13.17c0,2.05-.88,3.08-2.63,3.08h-1.83c-1.74,0-2.6-1.03-2.6-3.1V.35h2.17v13.22c0,.71.32,1.06.95,1.06h.88c.59,0,.88-.35.88-1.06V.35h2.17Z" style="fill:#00193d;"/><path d="M41.24,16.6V.35h2.17v16.25h-2.17Z" style="fill:#00193d;"/><path d="M49.96,16.6h-5.16V.35h2.17v14.28h2.99v1.97Z" style="fill:#00193d;"/><path d="M50.55,16.6V.35h3.78c2.04,0,3.06,1.04,3.06,3.12v10.77c0,1.57-.87,2.35-2.6,2.35h-4.23ZM52.72,14.63h1.63c.57,0,.86-.24.86-.72V3.5c0-.78-.32-1.18-.97-1.18h-1.52v12.31Z" style="fill:#00193d;"/><path d="M58.65,16.6V.35h5.39v1.97h-3.21v4.94h2.85v1.97h-2.85v5.41h3.21v1.97h-5.39Z" style="fill:#00193d;"/><path d="M64.94.35h4.26c1.66,0,2.49.93,2.49,2.78v4.01c0,1.42-.43,2.32-1.29,2.69l1.52,6.77h-2.06l-1.43-6.56h-1.31v6.56h-2.17V.35ZM67.12,8.18h1.43c.65,0,.97-.39.97-1.18v-3.51c0-.78-.33-1.18-.97-1.18h-1.43v5.86Z" style="fill:#00193d;"/><path d="M72.74,5.15l.8-2.25h-.82V.54h1.17c.47,0,.7.23.7.7v1.66l-.84,2.25h-1.01Z" style="fill:#00193d;"/><path d="M80.31,4.72v-1.43c0-.65-.32-.97-.95-.97h-.34c-.62,0-.93.32-.93.97v2.69c0,.3.06.51.18.61.12.11.32.24.59.41l2.06,1.11c.45.26.77.46.96.6.19.14.34.32.44.52.11.2.16.59.16,1.17v3.46c0,1.83-.88,2.74-2.63,2.74h-1.34c-1.74,0-2.6-1-2.6-2.99v-.81h2.17v.88c0,.63.32.95.97.95h.38c.57,0,.86-.32.86-.95v-2.76c0-.3-.06-.51-.18-.61-.12-.11-.32-.24-.59-.41l-2.06-1.15c-.45-.24-.78-.44-.99-.61-.2-.17-.35-.38-.44-.65-.09-.26-.14-.61-.14-1.03v-3.33c0-1.86.87-2.78,2.6-2.78h1.36c1.74,0,2.6.93,2.6,2.78v1.58h-2.17Z" style="fill:#00193d;"/><path d="M93.1,12.8v1.04c0,1.84-.87,2.76-2.6,2.76h-1.4c-1.74,0-2.6-.92-2.6-2.76V3.11c0-1.84.87-2.76,2.6-2.76h1.4c1.74,0,2.6.92,2.6,2.76v1.83h-2.17v-1.68c0-.63-.33-.95-.97-.95h-.43c-.57,0-.86.32-.86.95v10.41c0,.63.29.95.86.95h.54c.57,0,.86-.32.86-.95v-.88h2.17Z" style="fill:#00193d;"/><path d="M98.98,16.6v-7.38h-2.67v7.38h-2.17V.35h2.17v6.9h2.67V.35h2.17v16.25h-2.17Z" style="fill:#00193d;"/><path d="M105.05,16.6c-1.75,0-2.63-.92-2.63-2.76V3.13c0-1.86.87-2.78,2.6-2.78h2.08c1.73,0,2.6.93,2.6,2.78v10.71c0,1.84-.88,2.76-2.63,2.76h-2.04ZM105.57,14.63h1.11c.57,0,.86-.32.86-.95V3.27c0-.63-.32-.95-.97-.95h-1.02c-.63,0-.95.32-.95.95v10.41c0,.63.32.95.97.95Z" style="fill:#00193d;"/><path d="M110.98,16.6V.35h2.17v16.25h-2.17Z" style="fill:#00193d;"/><path d="M121.03,12.8v1.04c0,1.84-.87,2.76-2.6,2.76h-1.4c-1.74,0-2.6-.92-2.6-2.76V3.11c0-1.84.87-2.76,2.6-2.76h1.4c1.74,0,2.6.92,2.6,2.76v1.83h-2.17v-1.68c0-.63-.33-.95-.97-.95h-.43c-.57,0-.86.32-.86.95v10.41c0,.63.29.95.86.95h.54c.57,0,.86-.32.86-.95v-.88h2.17Z" style="fill:#00193d;"/><path d="M122.07,16.6V.35h5.39v1.97h-3.21v4.94h2.85v1.97h-2.85v5.41h3.21v1.97h-5.39Z" style="fill:#00193d;"/></svg>